<svg width="199" height="125" viewBox="0 0 199 125" fill="none" xmlns="http://www.w3.org/2000/svg">
<path d="M114.468 110.466C101.885 110.468 89.4594 110.491 77.0341 110.443C75.6255 110.438 75.0068 110.788 74.5299 112.241C72.0978 119.649 66.9487 124.082 59.1314 124.532C52.3159 124.924 47.0147 121.798 43.4396 115.907C42.6466 114.6 41.969 113.223 41.6306 111.744C41.384 110.666 40.81 110.46 39.8503 110.473C37.2294 110.51 34.6065 110.43 31.9864 110.489C25.3085 110.639 19.0657 104.792 20.2045 96.0643C20.5078 93.7395 23.6162 92.5674 25.5725 93.9106C26.1911 94.3353 26.4545 94.915 26.4534 95.6502C26.4517 96.7511 26.4192 97.8549 26.4853 98.9523C26.6647 101.933 28.9446 104.121 31.9134 104.156C34.5345 104.186 37.1568 104.125 39.7772 104.175C40.8224 104.195 41.3585 103.859 41.6982 102.81C43.383 97.6074 46.6756 93.7585 51.6949 91.5097C60.5388 87.5474 71.6699 92.7601 74.2629 102.096C74.6751 103.58 75.3053 104.202 76.9383 104.195C90.6742 104.134 104.411 104.187 118.147 104.154C125.025 104.138 130.157 99.3448 130.518 92.5173C131.019 83.037 130.687 73.5445 130.721 64.0576C130.781 46.8614 130.754 29.6648 130.757 12.4683C130.757 8.39288 128.717 6.33349 124.709 6.33392C94.0385 6.33719 63.368 6.34178 32.6975 6.3465C28.4184 6.34716 26.4519 8.28272 26.4495 12.5758C26.4377 32.8655 26.4414 53.1553 26.437 73.445C26.4368 74.2834 26.4807 75.1305 26.3797 75.9584C26.196 77.4646 24.6651 78.6261 23.106 78.5316C21.7369 78.4486 20.4214 77.1816 20.3201 75.7839C20.2634 75.0013 20.3002 74.2118 20.3005 73.4254C20.3065 53.2929 20.4826 33.1583 20.2283 13.0291C20.1389 5.95003 24.7422 -0.101229 33.2111 0.0117284C44.586 0.163451 55.9645 0.0466679 67.3414 0.0480049C80.2387 0.0495192 93.1365 -0.00653345 106.033 0.0835733C112.318 0.127484 118.6 0.0371664 124.883 0.000239438C131.941 -0.0412451 137.179 5.31262 137.095 12.3923C137.044 16.6887 137.125 20.9867 137.077 25.2832C137.065 26.4257 137.376 26.8157 138.584 26.8135C146.08 26.8002 153.578 26.7651 161.07 26.9471C167.365 27.1 172.657 29.81 176.311 34.8356C182.562 43.4345 188.775 52.0745 194.58 60.989C197.478 65.4386 198.854 70.3636 198.813 75.7079C198.754 83.3619 198.811 91.0169 198.796 98.6714C198.783 105.627 193.969 110.434 187.037 110.447C184.992 110.451 182.946 110.494 180.903 110.425C179.741 110.386 179.161 110.71 178.812 111.941C177.164 117.746 173.38 121.646 167.736 123.691C158.838 126.914 148.394 121.304 146.072 112.112C143.629 102.441 148.716 93.2258 158.339 90.6983C166.229 88.6262 173.851 92.2629 177.779 100.068C178.084 100.675 178.457 101.302 178.544 101.954C178.792 103.813 179.707 104.417 181.587 104.232C183.556 104.038 185.564 104.289 187.552 104.232C190.291 104.155 192.172 102.437 192.532 99.7167C192.676 98.6313 192.675 97.5219 192.677 96.4233C192.689 89.6076 192.707 82.7918 192.664 75.9764C192.655 74.5171 192.397 73.0601 192.271 71.6005C192.165 70.3715 191.524 69.9409 190.293 69.961C186.519 70.0228 182.74 69.8884 178.969 70.0103C171.211 70.2612 163.453 70.1344 155.696 70.1039C151.577 70.0877 148.041 68.8427 146.343 64.5773C145.984 63.6742 145.867 62.7583 145.866 61.8111C145.861 55.5197 145.849 49.2283 145.866 42.937C145.871 40.8997 146.974 39.5646 148.687 39.3939C150.161 39.2471 151.669 40.5458 152.037 42.3564C152.171 43.0169 152.186 43.7097 152.187 44.3879C152.195 49.8928 152.184 55.3977 152.183 60.9027C152.183 63.085 152.804 63.8308 154.914 63.8369C165.924 63.8687 176.934 63.8567 187.944 63.8549C188.146 63.8549 188.349 63.7922 188.524 63.7632C188.87 63.1753 188.446 62.8092 188.2 62.458C182.794 54.7294 177.412 46.9839 171.939 39.3033C168.898 35.0365 164.699 32.9977 159.403 33.0727C152.798 33.1664 146.191 33.0998 139.585 33.1035C137.044 33.1048 137.076 33.1061 137.077 35.6076C137.089 52.8565 137.075 70.1054 137.097 87.3543C137.102 90.8724 137.025 94.3499 135.935 97.7583C133.667 104.846 126.541 110.254 119.025 110.449C117.559 110.487 116.092 110.462 114.468 110.466ZM169.886 99.5326C163.668 93.5616 153.478 97.037 152.078 105.254C151.347 109.543 152.406 113.351 155.975 116.052C159.249 118.529 163.023 118.779 166.709 117.233C173.554 114.362 175.219 105.14 169.886 99.5326ZM53.3846 116.977C55.8749 118.316 58.5628 118.41 61.1633 117.699C66.8422 116.149 70.0836 110.129 68.4275 104.46C66.4692 97.7564 60.4127 95.5316 55.5356 96.9518C50.9636 98.2832 48.1843 101.448 47.6727 106.285C47.1761 110.98 49.1204 114.498 53.3846 116.977Z" fill="#053B3B"/>
<path d="M77.5101 64.6752C63.9841 76.1003 48.8179 83.9911 31.5657 87.7845C23.8023 89.4915 15.9634 90.2843 8.03127 90.2719C6.40848 90.2694 4.78432 90.1719 3.1636 90.0723C1.3313 89.9598 -0.091285 88.4655 0.00457417 86.8142C0.102167 85.1331 1.42777 83.9626 3.3075 83.9623C6.19072 83.962 9.07468 84.0502 11.957 84.0098C25.904 83.8144 39.0504 80.3316 51.5884 74.3348C59.2431 70.6736 66.2331 66.0034 72.8052 60.6624C74.0172 59.6774 74.5047 58.7925 73.8051 57.2279C72.4904 54.2877 71.8638 51.1758 71.8681 47.9233C71.878 40.4352 74.7054 34.1584 79.9913 28.9741C84.6879 24.3678 90.401 21.4507 96.5938 19.4072C102.386 17.4961 108.324 16.326 114.404 15.8251C115.832 15.7075 116.501 16.3748 116.703 17.5954C116.975 19.2458 117.209 20.9151 117.28 22.584C117.622 30.5855 117.217 38.5298 114.356 46.1089C110.79 55.5532 104.43 62.256 94.6292 65.3645C93.0302 65.8717 91.3889 66.2318 89.7157 66.3841C87.5205 66.584 85.9496 65.5162 85.7432 63.7419C85.5181 61.8074 86.7058 60.367 88.9687 60.0767C96.5559 59.1033 102.275 55.2889 106.186 48.7746C109.014 44.0638 110.404 38.8715 110.894 33.4342C111.176 30.304 111.34 27.165 111.266 24.0153C111.237 22.766 110.868 22.4245 109.547 22.6401C103.149 23.6844 96.9378 25.3061 91.2051 28.4068C85.5542 31.4632 81.0219 35.6296 78.9357 41.9063C77.558 46.0515 77.8107 50.2316 79.1281 54.2993C80.7768 52.8022 82.4442 51.4179 83.9614 49.885C87.804 46.0027 91.015 41.5828 94.4525 37.3559C94.8803 36.8299 95.31 36.2815 95.834 35.8625C97.0601 34.882 98.484 34.9323 99.5678 35.905C100.743 36.9598 101.012 38.3923 100.111 39.726C97.9373 42.9398 95.5098 45.9674 93.0068 48.9265C88.263 54.5348 83.2201 59.8571 77.5101 64.6752Z" fill="#053B3B"/>
</svg>
