<svg width="216" height="76" viewBox="0 0 216 76" fill="none" xmlns="http://www.w3.org/2000/svg">
<g clip-path="url(#clip0_9_415)">
<path d="M46.1291 57.5161C41.0584 57.517 36.051 57.5262 31.0438 57.5069C30.4762 57.5049 30.2269 57.6459 30.0347 58.2314C29.0546 61.2168 26.9796 63.0032 23.8293 63.1845C21.0828 63.3425 18.9465 62.0828 17.5058 59.7088C17.1862 59.1821 16.9131 58.6272 16.7767 58.0312C16.6774 57.5967 16.4461 57.5137 16.0593 57.519C15.0031 57.5339 13.9461 57.5016 12.8903 57.5254C10.1992 57.5859 7.68343 55.2296 8.14235 51.7125C8.26458 50.7756 9.51722 50.3033 10.3056 50.8446C10.5549 51.0157 10.661 51.2493 10.6606 51.5456C10.6599 51.9892 10.6468 52.4341 10.6734 52.8763C10.7457 54.0775 11.6645 54.9592 12.8609 54.9733C13.9171 54.9854 14.9739 54.9608 16.0299 54.981C16.4511 54.989 16.6671 54.8536 16.804 54.4309C17.4829 52.3343 18.8098 50.7833 20.8325 49.877C24.3965 48.2803 28.8821 50.3809 29.9271 54.1432C30.0932 54.7412 30.3472 54.9918 31.0052 54.989C36.5406 54.9644 42.0763 54.9858 47.6117 54.9725C50.3834 54.9661 52.4516 53.0345 52.597 50.2831C52.7989 46.4627 52.6651 42.6373 52.6788 38.8143C52.703 31.8844 52.6921 24.9545 52.6934 18.0245C52.6934 16.3822 51.8713 15.5523 50.2561 15.5525C37.8963 15.5538 25.5366 15.5556 13.1768 15.5575C11.4524 15.5578 10.66 16.3378 10.659 18.0679C10.6542 26.2443 10.6557 34.4208 10.654 42.5972C10.6539 42.9351 10.6716 43.2765 10.6309 43.6101C10.5568 44.2171 9.93991 44.6851 9.31161 44.6471C8.75989 44.6136 8.22976 44.103 8.18894 43.5398C8.16609 43.2244 8.18092 42.9062 8.18104 42.5893C8.18346 34.4762 8.25442 26.3623 8.15194 18.2505C8.11592 15.3978 9.97098 12.9592 13.3838 13.0047C17.9677 13.0659 22.5531 13.0188 27.1378 13.0193C32.3352 13.02 37.5329 12.9974 42.73 13.0337C45.2627 13.0514 47.7943 13.015 50.3262 13.0001C53.1705 12.9834 55.2813 15.1409 55.2475 17.9939C55.2269 19.7253 55.2596 21.4573 55.2402 23.1888C55.2354 23.6492 55.3607 23.8063 55.8475 23.8054C58.8683 23.8001 61.8899 23.7859 64.909 23.8593C67.4458 23.9209 69.5784 25.013 71.0509 27.0382C73.57 30.5035 76.0737 33.9852 78.4131 37.5777C79.5809 39.3708 80.1354 41.3555 80.1189 43.5092C80.0951 46.5936 80.1181 49.6784 80.1121 52.7631C80.1068 55.5661 78.1669 57.5032 75.3734 57.5085C74.5493 57.5101 73.7247 57.5274 72.9014 57.4996C72.4332 57.4839 72.1994 57.6145 72.0588 58.1105C71.3947 60.4499 69.8698 62.0215 67.5953 62.8456C64.0096 64.1444 59.8008 61.8837 58.8651 58.1795C57.8806 54.2822 59.9306 50.5686 63.8085 49.5501C66.988 48.715 70.0596 50.1806 71.6425 53.3259C71.7654 53.5705 71.9158 53.8232 71.9508 54.0859C72.0508 54.8351 72.4195 55.0785 73.1771 55.0039C73.9706 54.9258 74.7798 55.0269 75.5809 55.0039C76.6847 54.9729 77.4427 54.2806 77.5878 53.1843C77.6458 52.7469 77.6454 52.2999 77.6462 51.8571C77.651 49.1105 77.6583 46.3639 77.641 43.6174C77.6373 43.0293 77.5334 42.4421 77.4826 41.8539C77.4399 41.3587 77.1816 41.1851 76.6855 41.1932C75.1646 41.2181 73.6417 41.164 72.1221 41.2131C68.9957 41.3142 65.8694 41.2631 62.7434 41.2508C61.0835 41.2443 59.6586 40.7426 58.9743 39.0237C58.8296 38.6598 58.7825 38.2907 58.7821 37.9089C58.78 35.3736 58.7752 32.8383 58.7821 30.303C58.7841 29.482 59.2286 28.9439 59.9189 28.8752C60.5129 28.816 61.1206 29.3394 61.2689 30.069C61.3229 30.3352 61.3289 30.6144 61.3293 30.8877C61.3326 33.1061 61.3281 35.3244 61.3277 37.5429C61.3277 38.4223 61.578 38.7229 62.4283 38.7253C66.8651 38.7381 71.302 38.7333 75.7389 38.7326C75.8203 38.7326 75.9021 38.7073 75.9726 38.6956C76.112 38.4587 75.9412 38.3112 75.842 38.1696C73.6635 35.0551 71.4946 31.9338 69.2891 28.8386C68.0636 27.1192 66.3715 26.2976 64.2373 26.3278C61.5756 26.3656 58.913 26.3387 56.2509 26.3402C55.2269 26.3407 55.2398 26.3413 55.2402 27.3493C55.2451 34.3004 55.2394 41.2514 55.2483 48.2025C55.2503 49.6202 55.2193 51.0216 54.78 52.3951C53.866 55.2514 50.9944 57.4307 47.9655 57.5093C47.3748 57.5246 46.7836 57.5145 46.1291 57.5161ZM68.4618 53.1101C65.956 50.7039 61.8496 52.1045 61.2854 55.4158C60.9908 57.1442 61.4176 58.6788 62.8558 59.7672C64.1752 60.7654 65.6961 60.8662 67.1815 60.2431C69.9399 59.0862 70.6109 55.3698 68.4618 53.1101ZM21.5134 60.14C22.517 60.6796 23.6002 60.7175 24.6481 60.4309C26.9366 59.8063 28.2429 57.3803 27.5755 55.0958C26.7863 52.3944 24.3457 51.4978 22.3803 52.0701C20.5378 52.6067 19.4178 53.882 19.2116 55.8313C19.0115 57.7233 19.795 59.141 21.5134 60.14Z" fill="black"/>
<path d="M31.2354 39.0633C25.7846 43.6674 19.6729 46.8473 12.7205 48.376C9.59197 49.0639 6.43301 49.3834 3.23648 49.3784C2.58252 49.3774 1.92801 49.3381 1.27488 49.298C0.536494 49.2526 -0.0367865 48.6504 0.00184332 47.985C0.0411718 47.3075 0.57537 46.8358 1.33287 46.8358C2.49477 46.8356 3.65696 46.8711 4.81849 46.8549C10.4389 46.7761 15.7367 45.3726 20.7894 42.956C23.8741 41.4806 26.691 39.5986 29.3394 37.4462C29.8278 37.0493 30.0243 36.6927 29.7424 36.0621C29.2126 34.8773 28.96 33.6233 28.9618 32.3125C28.9658 29.2949 30.1052 26.7655 32.2353 24.6763C34.128 22.82 36.4303 21.6445 38.9259 20.821C41.26 20.0508 43.653 19.5793 46.1031 19.3774C46.6786 19.33 46.9482 19.599 47.0296 20.0909C47.1392 20.7559 47.2335 21.4287 47.2621 22.1012C47.3999 25.3257 47.2367 28.5271 46.0838 31.5814C44.6467 35.3873 42.0837 38.0884 38.1342 39.3411C37.4898 39.5455 36.8284 39.6906 36.1541 39.752C35.2695 39.8325 34.6364 39.4022 34.5532 38.6872C34.4625 37.9077 34.9411 37.3272 35.8531 37.2102C38.9106 36.8179 41.2153 35.2808 42.7914 32.6556C43.931 30.7573 44.4912 28.6648 44.6886 26.4736C44.8023 25.2122 44.8684 23.9472 44.8385 22.678C44.8269 22.1746 44.6782 22.0369 44.1458 22.1238C41.5675 22.5446 39.0645 23.1981 36.7543 24.4477C34.4771 25.6794 32.6506 27.3584 31.8099 29.8878C31.2547 31.5582 31.3566 33.2427 31.8874 34.882C32.5518 34.2787 33.2238 33.7208 33.8352 33.1031C35.3837 31.5386 36.6777 29.7574 38.0629 28.0541C38.2353 27.8421 38.4085 27.6211 38.6197 27.4522C39.1138 27.0571 39.6876 27.0774 40.1243 27.4693C40.5979 27.8944 40.7063 28.4717 40.3432 29.0091C39.4673 30.3043 38.489 31.5244 37.4804 32.7168C35.5687 34.9769 33.5365 37.1217 31.2354 39.0633Z" fill="black"/>
<path d="M94.5952 45.9659H91.5503V30.4346H101.364V33.3042H94.5735V37.1378H100.619V39.9199H94.5952V45.9659ZM107.356 45.9659H104.289V30.4346H107.356V45.9659ZM114.361 43.1619H116.77C118.129 43.1619 119.246 42.7385 120.122 41.8914C120.998 41.0444 121.436 39.8176 121.436 38.2112C121.436 36.6047 120.998 35.378 120.122 34.531C119.246 33.6693 118.136 33.2385 116.792 33.2385H114.361V43.1619ZM116.88 45.9659H111.338V30.4346H116.902C119.166 30.4346 121.006 31.1282 122.422 32.5156C123.854 33.903 124.569 35.8015 124.569 38.2112C124.569 40.6063 123.854 42.4975 122.422 43.8849C120.991 45.2722 119.143 45.9659 116.88 45.9659ZM137.354 45.9659H127.628V30.4346H137.354V33.2823H130.651V36.8311H136.719V39.5255H130.651V43.1181H137.354V45.9659ZM150.761 45.9659H140.816V30.4346H143.839V43.0743H150.761V45.9659ZM155.856 45.9659H153.709V30.4346H163.151V32.428H155.856V37.4226H162.472V39.4379H155.856V45.9659ZM168.954 33.6985C167.858 34.7646 167.311 36.2616 167.311 38.1893C167.311 40.117 167.858 41.6212 168.954 42.7019C170.049 43.7826 171.371 44.323 172.919 44.323C174.466 44.323 175.788 43.7826 176.884 42.7019C177.979 41.6212 178.527 40.117 178.527 38.1893C178.527 36.2616 177.979 34.7646 176.884 33.6985C175.788 32.6178 174.466 32.0775 172.919 32.0775C171.371 32.0775 170.049 32.6178 168.954 33.6985ZM165.12 38.1893C165.12 36.9333 165.339 35.7869 165.777 34.75C166.23 33.7132 166.821 32.8661 167.552 32.2089C168.296 31.5372 169.129 31.0187 170.049 30.6536C170.969 30.2885 171.926 30.106 172.919 30.106C173.912 30.106 174.868 30.2885 175.788 30.6536C176.708 31.0187 177.534 31.5372 178.264 32.2089C179.009 32.8661 179.6 33.7132 180.038 34.75C180.491 35.7869 180.717 36.9333 180.717 38.1893C180.717 39.8541 180.33 41.3145 179.556 42.5705C178.797 43.8264 177.833 44.7611 176.665 45.3745C175.496 45.9878 174.248 46.2945 172.919 46.2945C171.59 46.2945 170.341 45.9878 169.173 45.3745C168.004 44.7611 167.033 43.8264 166.259 42.5705C165.5 41.3145 165.12 39.8541 165.12 38.1893ZM186.955 33.6985C185.86 34.7646 185.312 36.2616 185.312 38.1893C185.312 40.117 185.86 41.6212 186.955 42.7019C188.05 43.7826 189.372 44.323 190.92 44.323C192.468 44.323 193.79 43.7826 194.885 42.7019C195.98 41.6212 196.528 40.117 196.528 38.1893C196.528 36.2616 195.98 34.7646 194.885 33.6985C193.79 32.6178 192.468 32.0775 190.92 32.0775C189.372 32.0775 188.05 32.6178 186.955 33.6985ZM183.121 38.1893C183.121 36.9333 183.341 35.7869 183.779 34.75C184.232 33.7132 184.823 32.8661 185.553 32.2089C186.298 31.5372 187.13 31.0187 188.05 30.6536C188.97 30.2885 189.927 30.106 190.92 30.106C191.913 30.106 192.87 30.2885 193.79 30.6536C194.71 31.0187 195.535 31.5372 196.265 32.2089C197.01 32.8661 197.601 33.7132 198.04 34.75C198.492 35.7869 198.719 36.9333 198.719 38.1893C198.719 39.8541 198.332 41.3145 197.558 42.5705C196.798 43.8264 195.834 44.7611 194.666 45.3745C193.498 45.9878 192.249 46.2945 190.92 46.2945C189.591 46.2945 188.342 45.9878 187.174 45.3745C186.006 44.7611 185.035 43.8264 184.261 42.5705C183.501 41.3145 183.121 39.8541 183.121 38.1893ZM204.256 44.0601H207.432C208.951 44.0601 210.207 43.5563 211.2 42.5486C212.208 41.5409 212.711 40.1024 212.711 38.2331C212.711 36.3492 212.215 34.8961 211.222 33.8738C210.243 32.8515 208.995 32.3403 207.476 32.3403H204.256V44.0601ZM207.498 45.9659H202.109V30.4346H207.541C209.63 30.4346 211.382 31.1282 212.799 32.5156C214.216 33.8884 214.924 35.7942 214.924 38.2331C214.924 40.6574 214.208 42.5559 212.777 43.9287C211.346 45.2868 209.586 45.9659 207.498 45.9659Z" fill="black"/>
</g>
<defs>
<clipPath id="clip0_9_415">
<rect width="216" height="50.3731" fill="white" transform="translate(0 13)"/>
</clipPath>
</defs>
</svg>
